<?xml version="1.0" encoding="utf-8"?>
<!-- Generator: Adobe Illustrator 25.2.1, SVG Export Plug-In . SVG Version: 6.00 Build 0)  -->
<svg version="1.1" id="Layer_1" xmlns="http://www.w3.org/2000/svg" xmlns:xlink="http://www.w3.org/1999/xlink" x="0px" y="0px"
	 viewBox="0 0 1792 1792" style="enable-background:new 0 0 1792 1792;" xml:space="preserve">
<style type="text/css">
	.st0{fill:#FFB940;}
</style>
<path class="st0" d="M1201,1004l306-297l-422-62L896,263L707,645l-422,62l306,297l-73,421l378-199l377,199L1201,1004z M1728,647
	c0,14.7-8.7,30.7-26,48l-363,354l86,500c0.7,4.7,1,11.3,1,20c0,33.3-13.7,50-41,50c-12.7,0-26-4-40-12l-449-236l-449,236
	c-14.7,8-28,12-40,12c-14,0-24.5-4.8-31.5-14.5S365,1583,365,1569c0-4,0.7-10.7,2-20l86-500L89,695c-16.7-18-25-34-25-48
	c0-24.7,18.7-40,56-46l502-73L847,73c12.7-27.3,29-41,49-41s36.3,13.7,49,41l225,455l502,73C1709.3,607,1728,622.3,1728,647z"/>
</svg>
