<?xml version="1.0" encoding="utf-8"?>
<!-- Generator: Adobe Illustrator 23.0.0, SVG Export Plug-In . SVG Version: 6.00 Build 0)  -->
<svg version="1.1" id="servicesvg" xmlns="http://www.w3.org/2000/svg" xmlns:xlink="http://www.w3.org/1999/xlink" x="0px" y="0px"
			viewBox="0 0 124.4 99.4" enable-background="new 0 0 124.4 99.4" xml:space="preserve" height="60px">
		<g>
			<g>
				<path fill="none" stroke="#f63c25" stroke-width="2" stroke-linecap="round" stroke-linejoin="round" stroke-miterlimit="10" d="
					M14.1,26.9c0,2.5-2,4.5-4.5,4.5h0c-2.5,0-4.5-2-4.5-4.5v-19c0-2.5,2-4.5,4.5-4.5h0c2.5,0,4.5,2,4.5,4.5"/>
				<path fill="none" stroke="#f63c25" stroke-width="2" stroke-miterlimit="10" d="M20,33.7h-1.5c-2.5,0-4.5-2-4.5-4.5V5.5
					c0-2.5,2-4.5,4.5-4.5H20c2.5,0,4.5,2,4.5,4.5v23.8C24.5,31.7,22.5,33.7,20,33.7z"/>
				
					<line fill="none" stroke="#f63c25" stroke-width="2" stroke-linecap="round" stroke-linejoin="round" stroke-miterlimit="10" x1="5.1" y1="17.3" x2="1" y2="17.3"/>
				<path fill="none" stroke="#f63c25" stroke-width="2" stroke-linecap="round" stroke-linejoin="round" stroke-miterlimit="10" d="
					M110.4,26.9c0,2.5,2,4.5,4.5,4.5h0c2.5,0,4.5-2,4.5-4.5v-19c0-2.5-2-4.5-4.5-4.5h0c-2.5,0-4.5,2-4.5,4.5"/>
				<path fill="none" stroke="#f63c25" stroke-width="2" stroke-miterlimit="10" d="M104.4,33.7h1.5c2.5,0,4.5-2,4.5-4.5V5.5
					c0-2.5-2-4.5-4.5-4.5h-1.5c-2.5,0-4.5,2-4.5,4.5v23.8C99.9,31.7,101.9,33.7,104.4,33.7z"/>
				
					<line fill="none" stroke="#f63c25" stroke-width="2" stroke-linecap="round" stroke-linejoin="round" stroke-miterlimit="10" x1="119.3" y1="17.3" x2="123.4" y2="17.3"/>
				
					<line fill="none" stroke="#f63c25" stroke-width="2" stroke-linecap="round" stroke-linejoin="round" stroke-miterlimit="10" x1="24.5" y1="17.3" x2="99.9" y2="17.3"/>
			</g>
			
				<path fill="none" stroke="#f63c25" stroke-width="1.9413" stroke-linecap="round" stroke-linejoin="round" stroke-miterlimit="10" d="
				M78.1,81.8H46.3c-2,0-3.5-1.9-3.1-3.9l6.1-27.3c0.9-4.3,4.8-7.4,9.2-7.4h7.7c4.4,0,8.2,3.1,9.2,7.4l5.9,27.2
				C81.7,79.9,80.1,81.8,78.1,81.8z"/>
			<g>
				
					<line fill="none" stroke="#f63c25" stroke-width="1.9413" stroke-linecap="round" stroke-linejoin="round" stroke-miterlimit="10" x1="43.1" y1="78.7" x2="43.1" y2="98.5"/>
				
					<line fill="none" stroke="#f63c25" stroke-width="1.9413" stroke-linecap="round" stroke-linejoin="round" stroke-miterlimit="10" x1="81.3" y1="78.7" x2="81.3" y2="98.5"/>
			</g>
			<g>
				
					<line fill="none" stroke="#f63c25" stroke-width="2" stroke-linecap="round" stroke-linejoin="round" stroke-miterlimit="10" x1="30.9" y1="63.9" x2="46.2" y2="63.9"/>
				
					<line fill="none" stroke="#f63c25" stroke-width="2" stroke-linecap="round" stroke-linejoin="round" stroke-miterlimit="10" x1="78.3" y1="63.9" x2="93.6" y2="63.9"/>
				
					<line fill="none" stroke="#f63c25" stroke-width="2" stroke-linecap="round" stroke-linejoin="round" stroke-miterlimit="10" x1="38.5" y1="63.9" x2="38.5" y2="17.3"/>
				
					<line fill="none" stroke="#f63c25" stroke-width="2" stroke-linecap="round" stroke-linejoin="round" stroke-miterlimit="10" x1="86.7" y1="63.9" x2="86.7" y2="17.3"/>
			</g>
		</g>
		</svg>
