<?xml version="1.0" encoding="utf-8"?>
<!-- Generator: Adobe Illustrator 23.0.0, SVG Export Plug-In . SVG Version: 6.00 Build 0)  -->
<svg version="1.1" id="Layer_1" xmlns="http://www.w3.org/2000/svg" xmlns:xlink="http://www.w3.org/1999/xlink" x="0px" y="0px"
	 viewBox="0 0 112.8 102" enable-background="new 0 0 112.8 102" xml:space="preserve" height="60px">
<g>
	<path fill="none" stroke="#f63c25" stroke-width="2" stroke-miterlimit="10" d="M4.7,20.1v-0.3c0-2.6,2.1-4.7,4.7-4.7h21.5
		c2.6,0,4.7,2.1,4.7,4.7v0.3c0,2.6-2.1,4.7-4.7,4.7H9.4C6.8,24.8,4.7,22.7,4.7,20.1z"/>
	<path fill="none" stroke="#f63c25" stroke-width="2" stroke-miterlimit="10" d="M1,77.2v-1.8c0-13.1,10.6-23.8,23.8-23.8h46
		c13.1,0,23.8,10.6,23.8,23.8v1.8c0,13.1-10.6,23.8-23.8,23.8h-46C11.6,101,1,90.4,1,77.2z"/>
	<circle fill="none" stroke="#f63c25" stroke-width="2" stroke-miterlimit="10" cx="28.7" cy="76.2" r="16"/>
	
		<line fill="none" stroke="#f63c25" stroke-width="2" stroke-linecap="round" stroke-linejoin="round" stroke-miterlimit="10" x1="55.2" y1="60.3" x2="74" y2="60.3"/>
	
		<line fill="none" stroke="#f63c25" stroke-width="2" stroke-linecap="round" stroke-linejoin="round" stroke-miterlimit="10" x1="44.6" y1="92.5" x2="58" y2="92.5"/>
	
		<line fill="none" stroke="#f63c25" stroke-width="2" stroke-linecap="round" stroke-linejoin="round" stroke-miterlimit="10" x1="28.7" y1="76.2" x2="52" y2="92.2"/>
	
		<line fill="none" stroke="#f63c25" stroke-width="2" stroke-linecap="round" stroke-linejoin="round" stroke-miterlimit="10" x1="19.1" y1="24.8" x2="30" y2="51.7"/>
	<path fill="none" stroke="#f63c25" stroke-width="2" stroke-linecap="round" stroke-linejoin="round" stroke-miterlimit="10" d="
		M76.8,52.5l9.3-36.8l8.4,0.2c7.5,0,14.2-4.6,16.8-11.6l0.5-1.4c0.3-0.9-0.3-1.8-1.2-1.8H70"/>
</g>
</svg>
