<?xml version="1.0" encoding="utf-8"?>
<!-- Generator: Adobe Illustrator 23.0.0, SVG Export Plug-In . SVG Version: 6.00 Build 0)  -->
<svg version="1.1" id="Layer_1" xmlns="http://www.w3.org/2000/svg" xmlns:xlink="http://www.w3.org/1999/xlink" x="0px" y="0px"
	 viewBox="0 0 95.8 102" enable-background="new 0 0 95.8 102" xml:space="preserve" height="60px">
<g>
	
		<circle fill="none" stroke="#f63c25" stroke-width="2" stroke-linecap="round" stroke-linejoin="round" stroke-miterlimit="10" cx="46.8" cy="13" r="12"/>
	<path fill="none" stroke="#f63c25" stroke-width="2" stroke-linejoin="round" stroke-miterlimit="10" d="M39.7,22.6H1V23
		c0,6.2,5.1,11.3,11.3,11.3h19.6V55c0,8.3,6.7,15,15,15h18.6c1.3,0,2.3,1,2.3,2.3V101H80V65.5c0-4.1-3.4-7.5-7.5-7.5H48.6"/>
	<path fill="none" stroke="#f63c25" stroke-width="2" stroke-linecap="round" stroke-linejoin="round" stroke-miterlimit="10" d="
		M53.9,22.6h40.9V23c0,6.2-5.1,11.3-11.3,11.3H60V58"/>
	
		<polyline fill="none" stroke="#f63c25" stroke-width="2" stroke-linecap="round" stroke-linejoin="round" stroke-miterlimit="10" points="
		35,64.1 12.4,101 25.8,101 45,69.9 	"/>
	<line fill="none" stroke="#f63c25" stroke-width="2" stroke-miterlimit="10" x1="46.8" y1="101" x2="50.1" y2="101"/>
	<line fill="none" stroke="#f63c25" stroke-width="2" stroke-miterlimit="10" x1="53.4" y1="101" x2="56.7" y2="101"/>
	<line fill="none" stroke="#f63c25" stroke-width="2" stroke-miterlimit="10" x1="59.9" y1="101" x2="63.2" y2="101"/>
</g>
</svg>
