<?xml version="1.0" encoding="utf-8"?>
<!-- Generator: Adobe Illustrator 23.0.0, SVG Export Plug-In . SVG Version: 6.00 Build 0)  -->
<svg version="1.1" id="Layer_1" xmlns="http://www.w3.org/2000/svg" xmlns:xlink="http://www.w3.org/1999/xlink" x="0px" y="0px"
	 viewBox="0 0 140.2 102" enable-background="new 0 0 140.2 102" xml:space="preserve" height="60px">
<g>
	<path fill="none" stroke="#f63c25" stroke-width="2" stroke-linecap="round" stroke-linejoin="round" stroke-miterlimit="10" d="
		M70.7,101c0,0,18.8-13.2,37-30.2c5.2-4.9,9.8-10.5,13.4-16.7c18.9-32.6-5.4-48.2-10.1-50.5c-18.9-8.9-40.3,8.5-40.3,8.5
		S49.3-5.4,30.4,3.5c-4.7,2.3-29,17.9-10.1,50.5c3.6,6.2,8.2,11.8,13.4,16.7C51.9,87.8,70.7,101,70.7,101z"/>
	
		<polyline fill="none" stroke="#f63c25" stroke-width="2" stroke-linecap="round" stroke-linejoin="round" stroke-miterlimit="10" points="
		1,53.9 43.6,53.9 54.8,30.8 70.7,71.6 84.9,22.6 93.4,51 101.3,40.3 107.1,51 139.2,51 	"/>
</g>
</svg>
